Fly_normalized_Motion_pl05
version=1
nRows=18
nColumns=43
inDegrees=yes
endheader
time		pelvis_tilt		pelvis_list		pelvis_rotation		pelvis_tx		pelvis_ty		pelvis_tz		hip_flexion_r		hip_adduction_r		hip_rotation_r		knee_angle_r		ankle_angle_r		subtalar_angle_r		mtp_angle_r		hip_flexion_l		hip_adduction_l		hip_rotation_l		knee_angle_l		ankle_angle_l		subtalar_angle_l		mtp_angle_l		lumbar_extension		lumbar_bending		lumbar_rotation		neck_flexion		neck_lateral_bending		neck_rotation		arm_flex_r		arm_add_r		arm_rot_r		elbow_flex_r		pro_sup_r		wrist_flex_r		wrist_dev_r		hand_finger_flex_r		arm_flex_l		arm_add_l		arm_rot_l		elbow_flex_l		pro_sup_l		wrist_flex_l		wrist_dev_l		hand_finger_flex_l		
3.109747		2.898206		-10.817402		95.676625		-0.004962		1.659793		1.126135		60.927560		-7.656905		-6.653602		-91.090987		-18.384624		3.195004		22.319803		50.661536		-10.993908		2.202660		-97.089197		-19.279672		-20.455240		33.515457		-31.271152		3.622808		-0.945003		-2.204486		10.657215		0.703335		57.212461		-16.081336		5.147304		52.697371		112.496046		1.251177		-2.500382		-26.510928		52.900055		-43.477920		23.866039		62.028048		123.044854		-5.745712		1.364480		-16.111133		
3.113737		2.845289		-10.705885		95.767840		-0.005404		1.656805		1.118395		60.479974		-7.717238		-6.817680		-89.482439		-19.081565		3.168236		22.282124		50.499002		-10.743318		1.920245		-95.595067		-19.392630		-18.941538		33.071893		-31.278329		3.714287		-1.104616		-2.420512		10.833125		0.560549		55.497368		-16.126089		3.956480		52.510991		113.608795		1.349874		-1.558043		-27.174197		50.112241		-45.039993		23.230609		62.932086		122.923758		-5.329609		1.623482		-16.184636		
3.117727		2.815015		-10.587569		95.859569		-0.005914		1.653563		1.110590		60.004196		-7.798543		-7.025454		-87.897165		-19.453937		3.215434		22.252764		50.300120		-10.543600		1.597215		-94.080976		-19.475633		-18.218357		32.769643		-31.249263		3.823898		-1.063726		-2.870102		10.748935		0.486885		53.695511		-16.660825		3.190246		52.361512		114.287718		1.536959		-1.126229		-27.536788		47.617016		-46.452534		23.089291		63.578393		123.075115		-4.920320		1.624704		-16.268307		
3.121717		2.783605		-10.416200		95.928715		-0.006528		1.650256		1.102570		59.431825		-7.865355		-7.211225		-86.303464		-20.010148		3.346544		22.200010		49.970476		-10.316820		1.279816		-92.494230		-19.660191		-17.334130		32.285804		-31.298748		3.967241		-1.126942		-3.112890		10.731871		0.385990		51.940841		-16.857070		2.078691		52.222550		115.378587		1.871379		-0.303257		-28.016911		44.571617		-47.890930		22.186886		64.507586		123.451657		-4.367225		1.681009		-16.513792		
3.125707		2.752372		-10.200755		96.014307		-0.007157		1.646935		1.094547		58.761097		-7.927685		-7.421190		-84.661851		-20.517508		3.599813		22.134760		49.553195		-10.063388		0.984916		-90.826640		-20.002413		-16.794738		31.725862		-31.419600		4.117098		-1.184854		-3.241743		10.706113		0.251684		50.206246		-17.105026		1.019456		52.133673		116.421321		2.339914		0.578405		-28.439351		41.305814		-49.175981		20.851723		65.474872		124.198850		-3.690149		1.620462		-16.831887		
3.129697		2.744321		-10.080816		96.122481		-0.007732		1.643072		1.086461		58.176900		-8.015208		-7.702846		-83.064715		-20.894435		3.828339		22.119215		49.235974		-9.821182		0.685142		-89.166953		-20.449790		-16.523734		31.617615		-31.287061		4.202313		-0.916271		-4.011432		10.876098		-0.160869		48.197412		-17.890692		0.340209		51.935803		116.395322		2.307280		0.913140		-28.544607		38.959650		-50.292005		21.051555		65.862531		124.363106		-3.476838		1.368580		-16.896917		
3.133687		2.723458		-9.785283		96.250277		-0.008353		1.639607		1.078498		57.326651		-8.086849		-7.997462		-81.343740		-21.246598		4.034712		22.059104		48.666833		-9.548709		0.414849		-87.377081		-20.888533		-16.443137		31.086618		-31.588566		4.374902		-0.907605		-3.754969		10.818853		-0.346785		46.400699		-18.301888		-0.689648		52.136137		117.352662		3.024992		1.941135		-28.910009		35.450527		-51.411655		19.253560		66.974232		125.596963		-2.787546		1.278482		-17.216322		
3.137677		2.727793		-9.649674		96.355397		-0.008952		1.635358		1.070262		56.673718		-8.157973		-8.336185		-79.739031		-21.583990		4.195059		22.042449		48.251713		-9.296896		0.148296		-85.624782		-21.359144		-16.278577		30.952870		-31.484148		4.474698		-0.580812		-4.392918		11.065010		-0.804790		44.291749		-19.141170		-1.397020		52.058805		117.369871		3.128389		2.288137		-29.047700		32.907953		-52.466344		19.208101		67.449069		125.864751		-2.602375		1.020230		-17.342895		
3.141667		2.770264		-9.285972		96.485993		-0.009597		1.631517		1.062193		55.693290		-8.167585		-8.732539		-77.991954		-21.880075		4.246810		21.994412		47.567150		-9.084174		-0.079222		-83.782756		-21.874249		-16.411100		30.461367		-31.849703		4.680609		-0.416983		-4.053126		11.121167		-1.104424		42.369250		-19.716435		-2.429653		52.349445		117.978419		4.051845		3.118967		-29.490845		29.355774		-53.429351		17.363589		68.511367		127.123497		-2.051142		0.858086		-17.736250		
3.145657		2.847212		-8.931612		96.582200		-0.010157		1.627442		1.054041		54.703942		-8.100840		-9.132121		-76.216337		-22.177309		4.240892		21.943686		46.870110		-8.959814		-0.330984		-81.931921		-22.340301		-16.439183		29.913752		-32.177593		4.883045		-0.185801		-3.834892		11.257269		-1.418347		40.419502		-20.319303		-3.384277		52.533583		118.374422		4.922516		3.679896		-30.059345		25.765024		-54.347469		15.558748		69.480068		128.213732		-1.566340		0.582393		-18.203378		
3.149646		2.907048		-8.596451		96.638312		-0.010643		1.623101		1.045863		53.744264		-8.021084		-9.524224		-74.459498		-22.445916		4.219962		21.899071		46.163825		-8.872440		-0.643619		-80.061839		-22.782405		-16.396344		29.478075		-32.463799		5.014364		0.213518		-3.723384		11.464900		-1.820574		38.322813		-21.049696		-4.319810		52.723512		118.552203		5.516465		4.125154		-30.429816		22.460496		-55.194902		14.185054		70.292677		129.065150		-1.350906		0.237384		-18.553083		
3.153636		2.933927		-8.400345		96.723288		-0.011242		1.618281		1.037602		52.932162		-8.013619		-9.891896		-72.720265		-22.672772		4.255510		21.871715		45.584586		-8.742534		-1.008744		-78.185717		-23.246625		-16.220249		29.253299		-32.475880		5.112283		0.708933		-4.089302		11.767480		-2.298201		36.017817		-21.836460		-5.290935		52.775953		118.433917		5.664072		4.326846		-30.605128		19.633873		-55.929713		13.536011		70.739909		129.363457		-1.327731		-0.091911		-18.745664		
3.157626		2.956239		-8.162027		96.784486		-0.011713		1.613198		1.029315		52.086611		-8.013129		-10.311078		-71.028059		-22.876632		4.246830		21.843876		44.957417		-8.674022		-1.437855		-76.329139		-23.650206		-16.088011		29.052706		-32.563331		5.188798		1.241777		-4.298081		11.957898		-2.701392		33.629233		-22.699936		-6.150156		52.981575		118.408052		5.856767		4.469205		-30.696734		16.761649		-56.793429		12.915218		71.286357		129.809458		-1.350508		-0.471843		-18.894973		
3.161616		3.002938		-7.543099		96.763231		-0.012166		1.608766		1.020959		50.761764		-7.837873		-10.664760		-69.179440		-23.130036		4.173489		21.770409		43.836143		-8.676817		-1.844373		-74.351812		-24.070356		-15.941316		28.516249		-33.251010		5.319700		1.639130		-3.737454		12.059045		-2.992625		31.520717		-23.270349		-7.161529		53.296854		118.675342		6.470889		4.742397		-30.787054		12.623261		-57.427055		10.357944		72.242042		130.886092		-1.304631		-0.949018		-18.987518		
3.165606		3.021162		-7.351566		96.831264		-0.012612		1.603200		1.012693		49.950379		-7.845432		-11.083459		-67.454175		-23.361002		4.241426		21.741009		43.226942		-8.560472		-2.241867		-72.455772		-24.556635		-15.660207		28.327675		-33.274429		5.376014		2.213031		-3.969679		12.349683		-3.516378		28.964662		-24.056057		-8.082218		53.481544		118.582552		6.319544		4.642064		-30.807648		9.628964		-58.123161		9.540935		72.648911		130.896315		-1.535311		-1.341811		-19.068052		
3.169596		3.040687		-6.949828		96.848395		-0.013020		1.597888		1.004494		48.889644		-7.744734		-11.424038		-65.651982		-23.606897		4.248740		21.691517		42.355767		-8.469732		-2.624471		-70.514268		-24.955288		-15.388192		27.992368		-33.649829		5.445117		2.722111		-3.641345		12.529713		-3.962693		26.529545		-24.712454		-8.999612		53.803665		118.741409		6.265204		4.642102		-30.723659		5.997112		-58.739206		7.804482		73.264613		131.181614		-1.870251		-1.739505		-19.065152		
3.173586		3.002694		-6.224978		96.843185		-0.013584		1.592924		0.996156		47.443769		-7.654790		-11.747046		-63.825256		-23.806002		4.265522		21.563108		41.068684		-8.362645		-3.047543		-68.516972		-25.165868		-14.930645		27.004629		-34.421159		5.572827		2.520914		-3.403975		12.376569		-3.585477		24.934717		-24.811485		-9.375151		53.650379		119.399771		6.323173		4.591028		-30.302003		0.026508		-59.020595		3.218046		74.287929		131.788352		-2.079570		-2.147660		-18.409317		
3.177576		3.065228		-6.190121		96.885265		-0.013945		1.586553		0.988208		46.801597		-7.542067		-12.067148		-62.013506		-24.117925		4.403083		21.526735		40.634642		-8.235955		-3.365369		-66.625284		-25.635311		-14.471518		26.737357		-34.314555		5.616791		3.185791		-3.254601		12.636497		-4.516407		22.238864		-25.421824		-10.432856		53.865653		119.389092		5.774045		4.337333		-30.399306		-3.143192		-59.485589		2.078605		74.516496		131.331210		-2.517615		-2.730552		-18.479891		
